<?xml version="1.0" standalone="no"?><svg xmlns="http://www.w3.org/2000/svg" viewBox="0 0 1440 320"><path fill="#f3f4f5" fill-opacity="1" d="M0,160L24,165.3C48,171,96,181,144,165.3C192,149,240,107,288,96C336,85,384,107,432,106.7C480,107,528,85,576,101.3C624,117,672,171,720,186.7C768,203,816,181,864,192C912,203,960,245,1008,250.7C1056,256,1104,224,1152,224C1200,224,1248,256,1296,224C1344,192,1392,96,1416,48L1440,0L1440,320L1416,320C1392,320,1344,320,1296,320C1248,320,1200,320,1152,320C1104,320,1056,320,1008,320C960,320,912,320,864,320C816,320,768,320,720,320C672,320,624,320,576,320C528,320,480,320,432,320C384,320,336,320,288,320C240,320,192,320,144,320C96,320,48,320,24,320L0,320Z"></path></svg>